<?xml version="1.0" encoding="UTF-8" standalone="no"?>
<svg
   viewBox="0 0 203401 68021.852"
   version="1.1"
   id="svg38"
   sodipodi:docname="jax_logo.svg"
   inkscape:version="1.4 (e7c3feb1, 2024-10-09)"
   xml:space="preserve"
   inkscape:export-filename="../memory-rl/memorax/memorax.svg"
   inkscape:export-xdpi="96"
   inkscape:export-ydpi="96"
   width="203401"
   height="68021.852"
   xmlns:inkscape="http://www.inkscape.org/namespaces/inkscape"
   xmlns:sodipodi="http://sodipodi.sourceforge.net/DTD/sodipodi-0.dtd"
   xmlns:xlink="http://www.w3.org/1999/xlink"
   xmlns="http://www.w3.org/2000/svg"
   xmlns:svg="http://www.w3.org/2000/svg"><sodipodi:namedview
     id="namedview38"
     pagecolor="#ffffff"
     bordercolor="#000000"
     borderopacity="0.25"
     inkscape:showpageshadow="2"
     inkscape:pageopacity="0.0"
     inkscape:pagecheckerboard="0"
     inkscape:deskcolor="#d1d1d1"
     inkscape:zoom="1.2246917"
     inkscape:cx="179.63705"
     inkscape:cy="233.1199"
     inkscape:window-width="1512"
     inkscape:window-height="920"
     inkscape:window-x="0"
     inkscape:window-y="34"
     inkscape:window-maximized="1"
     inkscape:current-layer="Layer_1-2-97"><inkscape:page
       x="0"
       y="0"
       width="203401"
       height="68021.852"
       id="page2"
       margin="0"
       bleed="0" /></sodipodi:namedview><defs
     id="defs1"><style
       id="style1">.cls-1{fill:#5e97f6;}.cls-1,.cls-2,.cls-3,.cls-4,.cls-5,.cls-6,.cls-7,.cls-8,.cls-9{stroke:#dce0df;stroke-linejoin:round;}.cls-2{fill:#2a56c6;}.cls-3{fill:#00796b;}.cls-4{fill:#3367d6;}.cls-5{fill:#26a69a;}.cls-6{fill:#9c27b0;}.cls-7{fill:#6a1b9a;}.cls-8{fill:#00695c;}.cls-9{fill:#ea80fc;}</style><style
       id="style1-3">.cls-1{fill:#5e97f6;}.cls-1,.cls-2,.cls-3,.cls-4,.cls-5,.cls-6,.cls-7,.cls-8,.cls-9{stroke:#dce0df;stroke-linejoin:round;}.cls-2{fill:#2a56c6;}.cls-3{fill:#00796b;}.cls-4{fill:#3367d6;}.cls-5{fill:#26a69a;}.cls-6{fill:#9c27b0;}.cls-7{fill:#6a1b9a;}.cls-8{fill:#00695c;}.cls-9{fill:#ea80fc;}</style><style
       id="style1-8">.cls-1{fill:#5e97f6;}.cls-1,.cls-2,.cls-3,.cls-4,.cls-5,.cls-6,.cls-7,.cls-8,.cls-9{stroke:#dce0df;stroke-linejoin:round;}.cls-2{fill:#2a56c6;}.cls-3{fill:#00796b;}.cls-4{fill:#3367d6;}.cls-5{fill:#26a69a;}.cls-6{fill:#9c27b0;}.cls-7{fill:#6a1b9a;}.cls-8{fill:#00695c;}.cls-9{fill:#ea80fc;}</style><style
       id="style1-5">.cls-1{fill:#5e97f6;}.cls-1,.cls-2,.cls-3,.cls-4,.cls-5,.cls-6,.cls-7,.cls-8,.cls-9{stroke:#dce0df;stroke-linejoin:round;}.cls-2{fill:#2a56c6;}.cls-3{fill:#00796b;}.cls-4{fill:#3367d6;}.cls-5{fill:#26a69a;}.cls-6{fill:#9c27b0;}.cls-7{fill:#6a1b9a;}.cls-8{fill:#00695c;}.cls-9{fill:#ea80fc;}</style><style
       id="style1-6">.cls-1{fill:#5e97f6;}.cls-1,.cls-2,.cls-3,.cls-4,.cls-5,.cls-6,.cls-7,.cls-8,.cls-9{stroke:#dce0df;stroke-linejoin:round;}.cls-2{fill:#2a56c6;}.cls-3{fill:#00796b;}.cls-4{fill:#3367d6;}.cls-5{fill:#26a69a;}.cls-6{fill:#9c27b0;}.cls-7{fill:#6a1b9a;}.cls-8{fill:#00695c;}.cls-9{fill:#ea80fc;}</style><style
       id="style1-3-6">.cls-1{fill:#5e97f6;}.cls-1,.cls-2,.cls-3,.cls-4,.cls-5,.cls-6,.cls-7,.cls-8,.cls-9{stroke:#dce0df;stroke-linejoin:round;}.cls-2{fill:#2a56c6;}.cls-3{fill:#00796b;}.cls-4{fill:#3367d6;}.cls-5{fill:#26a69a;}.cls-6{fill:#9c27b0;}.cls-7{fill:#6a1b9a;}.cls-8{fill:#00695c;}.cls-9{fill:#ea80fc;}</style><style
       id="style1-8-2">.cls-1{fill:#5e97f6;}.cls-1,.cls-2,.cls-3,.cls-4,.cls-5,.cls-6,.cls-7,.cls-8,.cls-9{stroke:#dce0df;stroke-linejoin:round;}.cls-2{fill:#2a56c6;}.cls-3{fill:#00796b;}.cls-4{fill:#3367d6;}.cls-5{fill:#26a69a;}.cls-6{fill:#9c27b0;}.cls-7{fill:#6a1b9a;}.cls-8{fill:#00695c;}.cls-9{fill:#ea80fc;}</style></defs><title
     id="title1">JAX Light Stroke</title><g
     id="Layer_2"
     data-name="Layer 2"><g
       id="Layer_1-2"
       data-name="Layer 1"><g
         id="Layer_1-2-1-4"
         data-name="Layer 1"
         transform="translate(-17.66554,245.99995)" /><polygon
         class="cls-8"
         points="350.5,217.01 400.5,217.01 375.5,173.71 "
         id="polygon33-1-2-6-6-2-4-2"
         transform="matrix(-0.36022366,0,0,-0.36022366,432.44851,167.28806)"
         style="fill:#006b5f;fill-opacity:1;stroke:#dce0df;stroke-linejoin:round" /><polygon
         class="cls-8"
         points="375.5,173.71 350.5,217.01 400.5,217.01 "
         id="polygon33-1-2-6-6-2-4-9"
         transform="matrix(0.36022366,0,0,0.36022366,134.90376,57.73685)"
         style="fill:#006b5f;fill-opacity:1;stroke:#dce0df;stroke-linejoin:round" /><polygon
         class="cls-3"
         points="250.5,130.4 275.5,87.1 250.5,43.8 225.5,87.1 "
         id="polygon14-6-7-7-2-1-5-2"
         transform="matrix(0.36022366,0,0,0.36022366,224.95969,120.13119)"
         style="fill:#9c27af;fill-opacity:1;stroke:#dce0df;stroke-linejoin:round" /><polygon
         class="cls-3"
         points="275.5,87.1 250.5,43.8 225.5,87.1 250.5,130.4 "
         id="polygon14-6-7-7-2-1-5-7-6"
         transform="matrix(0.36022366,0,0,0.36022366,206.94851,88.935821)"
         style="fill:#9c27af;fill-opacity:1;stroke:#dce0df;stroke-linejoin:round" /><polygon
         class="cls-3"
         points="275.5,87.1 250.5,43.8 225.5,87.1 250.5,130.4 "
         id="polygon14-6-7-7-2-1-5-77-9"
         transform="matrix(0.36022366,0,0,0.36022366,215.95409,104.53351)"
         style="fill:#9c27af;fill-opacity:1;stroke:#dce0df;stroke-linejoin:round" /><polygon
         class="cls-3"
         points="275.5,87.1 250.5,43.8 225.5,87.1 250.5,130.4 "
         id="polygon14-6-7-7-2-1-5-8-6"
         transform="matrix(0.36022366,0,0,0.36022366,197.94291,73.338135)"
         style="fill:#9c27af;fill-opacity:1;stroke:#dce0df;stroke-linejoin:round" /><polygon
         class="cls-3"
         points="275.5,87.1 250.5,43.8 225.5,87.1 250.5,130.4 "
         id="polygon14-6-7-7-2-1-5-4-4"
         transform="matrix(0.36022366,0,0,0.36022366,188.93732,57.740451)"
         style="fill:#9c27af;fill-opacity:1;stroke:#dce0df;stroke-linejoin:round" /><g
         id="Layer_1-2-97"
         data-name="Layer 1"
         transform="translate(153.0888,-252.62135)"><polygon
           class="cls-1"
           points="175.5,173.71 125.5,173.71 100.5,217.01 150.5,217.01 "
           id="polygon4-6"
           transform="matrix(0.36022366,0,0,0.36022366,-189.29128,325.95948)" /><polygon
           class="cls-1"
           points="175.5,87.1 150.5,130.4 200.5,130.4 225.5,87.1 "
           id="polygon6-0"
           transform="matrix(0.36022366,0,0,0.36022366,-189.29128,325.95948)" /><polygon
           class="cls-1"
           points="200.5,130.4 225.5,87.1 175.5,87.1 150.5,130.4 "
           id="polygon6-7-6"
           transform="matrix(0.36022366,0,0,0.36022366,-198.29687,341.56077)"
           style="fill:#5e97f6;stroke:#dce0df;stroke-linejoin:round"
           inkscape:transform-center-x="-3.9129891"
           inkscape:transform-center-y="-16.956275" /><polygon
           class="cls-1"
           points="225.5,87.1 250.5,43.8 200.5,43.8 175.5,87.1 "
           id="polygon7-1"
           transform="matrix(0.36022366,0,0,0.36022366,-189.29128,325.95948)" /><polygon
           class="cls-1"
           points="250.5,43.8 275.5,0.5 225.5,0.5 200.5,43.8 "
           id="polygon8-68"
           transform="matrix(0.36022366,0,0,0.36022366,-189.29128,325.95948)" /><polygon
           class="cls-1"
           points="225.5,87.1 250.5,43.8 200.5,43.8 175.5,87.1 "
           id="polygon7-1-2"
           transform="matrix(0.36022366,0,0,0.36022366,-63.212987,325.95948)"
           style="fill:#5e97f6;stroke:#dce0df;stroke-linejoin:round" /><polygon
           class="cls-1"
           points="250.5,43.8 275.5,0.5 225.5,0.5 200.5,43.8 "
           id="polygon8-68-3"
           transform="matrix(0.36022366,0,0,0.36022366,-63.212987,325.95948)"
           style="fill:#5e97f6;stroke:#dce0df;stroke-linejoin:round" /><polygon
           class="cls-2"
           points="175.5,260.31 125.5,260.31 100.5,217.01 150.5,217.01 "
           id="polygon11-6"
           transform="matrix(0.36022366,0,0,0.36022366,-189.29128,325.95948)" /><polygon
           class="cls-3"
           points="225.5,87.1 250.5,130.4 275.5,87.1 250.5,43.8 "
           id="polygon14-8-5-6-03"
           style="fill:#6097f6;fill-opacity:1;stroke:#dce0df;stroke-linejoin:round"
           transform="matrix(0.36022366,0,0,0.36022366,-198.29687,341.55717)" /><polygon
           class="cls-3"
           points="250.5,43.8 225.5,87.1 250.5,130.4 275.5,87.1 "
           id="polygon14-8-5-6-06-1"
           style="fill:#6097f6;fill-opacity:1;stroke:#dce0df;stroke-linejoin:round"
           transform="matrix(0.36022366,0,0,0.36022366,-207.30245,357.15845)" /><polygon
           class="cls-3"
           points="250.5,130.4 275.5,87.1 250.5,43.8 225.5,87.1 "
           id="polygon14-8-5-6-6-0"
           style="fill:#6097f6;fill-opacity:1;stroke:#dce0df;stroke-linejoin:round"
           transform="matrix(0.36022366,0,0,0.36022366,-63.212977,325.95948)" /><polygon
           class="cls-1"
           points="175.5,87.1 225.5,87.1 250.5,43.8 200.5,43.8 "
           id="polygon7-1-2-3"
           transform="matrix(0.36022366,0,0,0.36022366,-72.218569,341.55717)"
           style="fill:#5e97f6;stroke:#dce0df;stroke-linejoin:round" /><polygon
           class="cls-3"
           points="225.5,87.1 250.5,130.4 275.5,87.1 250.5,43.8 "
           id="polygon14-8-5-6-6-0-6"
           style="fill:#6097f6;fill-opacity:1;stroke:#dce0df;stroke-linejoin:round"
           transform="matrix(0.36022366,0,0,0.36022366,-72.218569,341.55717)" /><polygon
           class="cls-1"
           points="250.5,43.8 200.5,43.8 175.5,87.1 225.5,87.1 "
           id="polygon7-1-2-0"
           transform="matrix(0.36022366,0,0,0.36022366,-63.213007,357.15486)"
           style="fill:#5e97f6;stroke:#dce0df;stroke-linejoin:round" /><polygon
           class="cls-3"
           points="225.5,87.1 250.5,130.4 275.5,87.1 250.5,43.8 "
           id="polygon14-8-5-6-1-4"
           style="fill:#6097f6;fill-opacity:1;stroke:#dce0df;stroke-linejoin:round"
           transform="matrix(0.36022366,0,0,0.36022366,-54.207397,310.3618)" /><polygon
           class="cls-3"
           points="225.5,87.1 250.5,130.4 275.5,87.1 250.5,43.8 "
           id="polygon14-8-5-9-8"
           style="fill:#6097f6;fill-opacity:1;stroke:#dce0df;stroke-linejoin:round"
           transform="matrix(0.36022366,0,0,0.36022366,-189.29128,325.95948)" /><polygon
           class="cls-3"
           points="250.5,130.4 275.5,87.1 250.5,43.8 225.5,87.1 "
           id="polygon14-8-5-7-7"
           style="fill:#6097f6;fill-opacity:1;stroke:#dce0df;stroke-linejoin:round"
           transform="matrix(0.36022366,0,0,0.36022366,-180.28569,310.3618)" /><polygon
           class="cls-3"
           points="275.5,87.1 250.5,43.8 225.5,87.1 250.5,130.4 "
           id="polygon14-8-5-03-46"
           style="fill:#6097f6;fill-opacity:1;stroke:#dce0df;stroke-linejoin:round"
           transform="matrix(0.36022366,0,0,0.36022366,-216.30804,372.75614)" /><polygon
           class="cls-8"
           points="400.5,217.01 350.5,217.01 375.5,260.31 425.5,260.31 "
           id="polygon32-4-5-04"
           transform="matrix(0.36022366,0,0,0.36022366,-18.185023,279.16282)"
           style="fill:#e983fb;fill-opacity:1;stroke:#dce0df;stroke-linejoin:round" /><polygon
           class="cls-8"
           points="400.5,217.01 375.5,173.71 350.5,217.01 "
           id="polygon33-1-0"
           transform="matrix(0.36022366,0,0,0.36022366,-189.29128,294.76051)"
           style="fill:#2956c7;fill-opacity:1;stroke:#dce0df;stroke-linejoin:round" /><polygon
           class="cls-8"
           points="350.5,217.01 400.5,217.01 375.5,173.71 "
           id="polygon33-1-2-8"
           transform="matrix(0.36022366,0,0,0.36022366,-99.235355,294.76051)"
           style="fill:#2956c7;fill-opacity:1;stroke:#dce0df;stroke-linejoin:round" /><polygon
           class="cls-8"
           points="400.5,217.01 375.5,173.71 350.5,217.01 "
           id="polygon33-1-2-6-6-3"
           transform="matrix(-0.36022366,0,0,-0.36022366,216.32055,435.5071)"
           style="fill:#e983fc;fill-opacity:1;stroke:#dce0df;stroke-linejoin:round" /><polygon
           class="cls-8"
           points="400.5,217.01 375.5,173.71 350.5,217.01 "
           id="polygon33-1-3-3"
           transform="matrix(0.36022366,0,0,0.36022366,-225.31364,294.76052)"
           style="fill:#2956c7;fill-opacity:1;stroke:#dce0df;stroke-linejoin:round" /><polygon
           class="cls-6"
           points="425.5,260.31 450.5,217.01 425.5,173.71 400.5,217.01 "
           id="polygon22-4-64"
           transform="matrix(0.36022366,0,0,0.36022366,-63.212981,294.76051)"
           style="fill:#e983fc;fill-opacity:1;stroke:#dce0df;stroke-linejoin:round" /><polygon
           class="cls-6"
           points="450.5,217.01 425.5,173.71 400.5,217.01 425.5,260.31 "
           id="polygon22-4-6-2"
           transform="matrix(0.36022366,0,0,0.36022366,98.887641,325.95588)"
           style="fill:#e983fc;fill-opacity:1;stroke:#dce0df;stroke-linejoin:round" /><polygon
           class="cls-6"
           points="450.5,217.01 425.5,173.71 400.5,217.01 425.5,260.31 "
           id="polygon22-4-11-9"
           transform="matrix(0.36022366,0,0,0.36022366,-54.207398,310.3582)"
           style="fill:#e983fc;fill-opacity:1;stroke:#dce0df;stroke-linejoin:round" /><polygon
           class="cls-8"
           points="375.5,260.31 425.5,260.31 400.5,217.01 350.5,217.01 "
           id="polygon32-85-2"
           transform="matrix(0.36022366,0,0,0.36022366,-189.29128,263.56514)"
           style="fill:#25a799;fill-opacity:1;stroke:#dce0df;stroke-linejoin:round" /><polygon
           class="cls-8"
           points="400.5,217.01 350.5,217.01 375.5,260.31 425.5,260.31 "
           id="polygon32-85-92-2"
           transform="matrix(0.36022366,0,0,0.36022366,-171.28009,294.76051)"
           style="fill:#25a799;fill-opacity:1;stroke:#dce0df;stroke-linejoin:round" /><polygon
           class="cls-8"
           points="425.5,260.31 400.5,217.01 350.5,217.01 375.5,260.31 "
           id="polygon32-85-92-1-1"
           transform="matrix(0.36022366,0,0,0.36022366,-153.26891,325.95588)"
           style="fill:#25a799;fill-opacity:1;stroke:#dce0df;stroke-linejoin:round" /><polygon
           class="cls-8"
           points="350.5,217.01 375.5,260.31 425.5,260.31 400.5,217.01 "
           id="polygon32-85-92-3-5"
           transform="matrix(0.36022366,0,0,0.36022366,-117.24654,325.95588)"
           style="fill:#25a799;fill-opacity:1;stroke:#dce0df;stroke-linejoin:round" /><polygon
           class="cls-8"
           points="375.5,260.31 425.5,260.31 400.5,217.01 350.5,217.01 "
           id="polygon32-85-8-5"
           transform="matrix(0.36022366,0,0,0.36022366,-63.212981,263.56514)"
           style="fill:#ea82fc;fill-opacity:1;stroke:#dce0df;stroke-linejoin:round" /><polygon
           class="cls-8"
           points="350.5,217.01 375.5,260.31 425.5,260.31 400.5,217.01 "
           id="polygon32-85-8-7-14"
           transform="matrix(0.36022366,0,0,0.36022366,-45.201805,263.56514)"
           style="fill:#ea82fc;fill-opacity:1;stroke:#dce0df;stroke-linejoin:round" /><polygon
           class="cls-8"
           points="350.5,217.01 375.5,260.31 425.5,260.31 400.5,217.01 "
           id="polygon32-85-8-7-1-0"
           transform="matrix(0.36022366,0,0,0.36022366,-27.190617,325.95588)"
           style="fill:#ea82fc;fill-opacity:1;stroke:#dce0df;stroke-linejoin:round" /><polygon
           class="cls-8"
           points="400.5,217.01 350.5,217.01 375.5,260.31 425.5,260.31 "
           id="polygon32-85-8-7-1-1-6"
           transform="matrix(0.36022366,0,0,0.36022366,-9.1794405,325.95588)"
           style="fill:#ea82fc;fill-opacity:1;stroke:#dce0df;stroke-linejoin:round" /><polygon
           class="cls-8"
           points="350.5,217.01 375.5,260.31 425.5,260.31 400.5,217.01 "
           id="polygon32-85-8-1-3"
           transform="matrix(0.36022366,0,0,0.36022366,-27.190617,263.56514)"
           style="fill:#ea82fc;fill-opacity:1;stroke:#dce0df;stroke-linejoin:round" /><polygon
           class="cls-9"
           points="400.5,43.8 425.5,0.5 375.5,0.5 350.5,43.8 "
           id="polygon37-99-1-8"
           transform="matrix(0.36022366,0,0,0.36022366,-63.212981,325.95948)"
           style="fill:#9b26b0;fill-opacity:1;stroke:#dce0df;stroke-linejoin:round" /><polygon
           class="cls-9"
           points="350.5,43.8 400.5,43.8 425.5,0.5 375.5,0.5 "
           id="polygon37-99-1-0-63"
           transform="matrix(0.36022366,0,0,0.36022366,-45.201805,325.95948)"
           style="fill:#9b26b0;fill-opacity:1;stroke:#dce0df;stroke-linejoin:round" /><polygon
           class="cls-9"
           points="350.5,43.8 400.5,43.8 425.5,0.5 375.5,0.5 "
           id="polygon37-99-1-6-6"
           transform="matrix(0.36022366,0,0,0.36022366,-27.190617,325.95948)"
           style="fill:#9b26b0;fill-opacity:1;stroke:#dce0df;stroke-linejoin:round" /><polygon
           class="cls-9"
           points="375.5,87.1 350.5,43.8 400.5,43.8 "
           id="polygon38-0-0-81"
           transform="matrix(0.36022366,0,0,0.36022366,-180.28569,341.55717)"
           style="fill:#24a89a;fill-opacity:1;stroke:#dce0df;stroke-linejoin:round" /><polygon
           class="cls-9"
           points="375.5,87.1 350.5,43.8 400.5,43.8 "
           id="polygon38-0-0-6-9"
           transform="matrix(0.36022366,0,0,0.36022366,-162.2745,372.75253)"
           style="fill:#24a89a;fill-opacity:1;stroke:#dce0df;stroke-linejoin:round" /><polygon
           class="cls-9"
           points="375.5,87.1 350.5,43.8 400.5,43.8 "
           id="polygon38-0-0-6-4-1"
           transform="matrix(0.36022366,0,0,0.36022366,-207.30245,325.95948)"
           style="fill:#6097f6;fill-opacity:1;stroke:#dce0df;stroke-linejoin:round" /><polygon
           class="cls-9"
           points="350.5,43.8 400.5,43.8 375.5,87.1 "
           id="polygon38-0-0-4-53"
           transform="matrix(-0.36022366,0,0,-0.36022366,261.34851,419.90581)"
           style="fill:#9c26b0;fill-opacity:1;stroke:#dce0df;stroke-linejoin:round" /><polygon
           class="cls-9"
           points="375.5,87.1 350.5,43.8 400.5,43.8 "
           id="polygon38-0-0-4-5-8"
           transform="matrix(0.36022366,0,0,0.36022366,135.27024,325.95947)"
           style="fill:#9c26b0;fill-opacity:1;stroke:#dce0df;stroke-linejoin:round" /><polygon
           class="cls-9"
           points="350.5,43.8 400.5,43.8 375.5,87.1 "
           id="polygon38-0-0-4-4-6-2"
           transform="matrix(-0.36022366,0,0,-0.36022366,306.73668,372.75255)"
           style="fill:#006b5e;fill-opacity:1;stroke:#dce0df;stroke-linejoin:round" /><polygon
           class="cls-8"
           points="425.5,260.31 400.5,217.01 350.5,217.01 375.5,260.31 "
           id="polygon32-8-7-6-81"
           transform="matrix(0.36022366,0,0,0.36022366,-9.1794405,294.76051)"
           style="fill:#e983fb;fill-opacity:1;stroke:#dce0df;stroke-linejoin:round" /><polygon
           class="cls-8"
           points="425.5,260.31 400.5,217.01 350.5,217.01 375.5,260.31 "
           id="polygon53"
           transform="matrix(0.36022366,0,0,0.36022366,126.26462,310.71838)"
           style="fill:#6197f5;fill-opacity:1;stroke:#dce0df;stroke-linejoin:round" /><polygon
           class="cls-8"
           points="375.5,260.31 425.5,260.31 400.5,217.01 350.5,217.01 "
           id="polygon32-8-3-3-8-9"
           transform="matrix(0.36022366,0,0,0.36022366,-0.17384564,310.3582)"
           style="fill:#e983fb;fill-opacity:1;stroke:#dce0df;stroke-linejoin:round" /><polygon
           class="cls-8"
           points="375.5,260.31 425.5,260.31 400.5,217.01 350.5,217.01 "
           id="polygon32-8-3-3-8-2-1"
           transform="matrix(0.36022366,0,0,0.36022366,8.8317479,325.95588)"
           style="fill:#e983fb;fill-opacity:1;stroke:#dce0df;stroke-linejoin:round" /><polygon
           class="cls-8"
           points="400.5,217.01 350.5,217.01 375.5,260.31 425.5,260.31 "
           id="polygon32-85-8-1-1-3"
           transform="matrix(0.36022366,0,0,0.36022366,98.887641,325.95587)"
           style="fill:#9c26b0;fill-opacity:1;stroke:#dce0df;stroke-linejoin:round" /><polygon
           class="cls-6"
           points="400.5,217.01 425.5,260.31 450.5,217.01 425.5,173.71 "
           id="polygon22-4-6-4-3"
           transform="matrix(0.36022366,0,0,0.36022366,117.25904,295.1207)"
           style="fill:#e983fc;fill-opacity:1;stroke:#dce0df;stroke-linejoin:round" /><polygon
           class="cls-6"
           points="425.5,173.71 400.5,217.01 425.5,260.31 450.5,217.01 "
           id="polygon22-4-6-4-8-0"
           transform="matrix(0.36022366,0,0,0.36022366,107.89322,310.3582)"
           style="fill:#e983fc;fill-opacity:1;stroke:#dce0df;stroke-linejoin:round" /><polygon
           class="cls-6"
           points="400.5,217.01 425.5,260.31 450.5,217.01 425.5,173.71 "
           id="polygon22-4-6-3-32"
           transform="matrix(0.36022366,0,0,0.36022366,126.26464,279.16281)"
           style="fill:#e983fc;fill-opacity:1;stroke:#dce0df;stroke-linejoin:round" /><polygon
           class="cls-6"
           points="400.5,217.01 425.5,260.31 450.5,217.01 425.5,173.71 "
           id="polygon22-4-6-1-6"
           transform="matrix(0.36022366,0,0,0.36022366,135.27024,263.56513)"
           style="fill:#e983fc;fill-opacity:1;stroke:#dce0df;stroke-linejoin:round" /><polygon
           class="cls-1"
           points="250.5,43.8 275.5,0.5 225.5,0.5 200.5,43.8 "
           id="polygon8-05-06"
           transform="matrix(0.36022366,0,0,0.36022366,-135.25772,325.95948)"
           style="fill:#006b5e;fill-opacity:1;stroke:#dce0df;stroke-linejoin:round" /><polygon
           class="cls-1"
           points="200.5,43.8 250.5,43.8 275.5,0.5 225.5,0.5 "
           id="polygon8-05-6-26"
           transform="matrix(0.36022366,0,0,0.36022366,-117.24654,357.15486)"
           style="fill:#006b5e;fill-opacity:1;stroke:#dce0df;stroke-linejoin:round" /><polygon
           class="cls-1"
           points="225.5,0.5 200.5,43.8 250.5,43.8 275.5,0.5 "
           id="polygon8-05-6-0-2"
           transform="matrix(0.36022366,0,0,0.36022366,-99.235356,388.35022)"
           style="fill:#006b5e;fill-opacity:1;stroke:#dce0df;stroke-linejoin:round" /><polygon
           class="cls-1"
           points="250.5,43.8 275.5,0.5 225.5,0.5 200.5,43.8 "
           id="polygon8-05-6-3-4"
           transform="matrix(0.36022366,0,0,0.36022366,-63.212987,388.35022)"
           style="fill:#006b5e;fill-opacity:1;stroke:#dce0df;stroke-linejoin:round" /><polygon
           class="cls-1"
           points="225.5,0.5 200.5,43.8 250.5,43.8 275.5,0.5 "
           id="polygon8-05-8-2"
           transform="matrix(0.36022366,0,0,0.36022366,-117.24653,325.95948)"
           style="fill:#006b5e;fill-opacity:1;stroke:#dce0df;stroke-linejoin:round" /><polygon
           class="cls-1"
           points="225.5,0.5 200.5,43.8 250.5,43.8 275.5,0.5 "
           id="polygon8-05-0-6"
           transform="matrix(0.36022366,0,0,0.36022366,62.865279,325.95948)"
           style="fill:#006b5e;fill-opacity:1;stroke:#dce0df;stroke-linejoin:round" /><polygon
           class="cls-1"
           points="200.5,43.8 250.5,43.8 275.5,0.5 225.5,0.5 "
           id="polygon8-05-8-3-7-0"
           transform="matrix(0.36022366,0,0,0.36022366,98.887622,325.95948)"
           style="fill:#006b5e;fill-opacity:1;stroke:#dce0df;stroke-linejoin:round" /><polygon
           class="cls-3"
           points="225.5,87.1 250.5,130.4 275.5,87.1 250.5,43.8 "
           id="polygon14-6-7-8"
           transform="matrix(0.36022366,0,0,0.36022366,-72.218581,341.55717)"
           style="fill:#00796b;stroke:#dce0df;stroke-linejoin:round" /><polygon
           class="cls-3"
           points="250.5,43.8 225.5,87.1 250.5,130.4 275.5,87.1 "
           id="polygon14-6-7-8-09-1"
           transform="matrix(0.36022366,0,0,0.36022366,-54.207399,372.75253)"
           style="fill:#00796b;stroke:#dce0df;stroke-linejoin:round" /><g
           id="Layer_1-2-1-4-9"
           data-name="Layer 1"
           transform="translate(-17.66554,245.99995)" /><polygon
           class="cls-3"
           points="225.5,87.1 250.5,130.4 275.5,87.1 250.5,43.8 "
           id="polygon14-8-5-64-2"
           style="fill:#6097f6;fill-opacity:1;stroke:#dce0df;stroke-linejoin:round"
           transform="matrix(0.36022366,0,0,0.36022366,-171.28009,325.95948)" /><polygon
           class="cls-3"
           points="250.5,43.8 225.5,87.1 250.5,130.4 275.5,87.1 "
           id="polygon14-8-5-76-4"
           style="fill:#6097f6;fill-opacity:1;stroke:#dce0df;stroke-linejoin:round"
           transform="matrix(0.36022366,0,0,0.36022366,-162.2745,341.55717)" /><polygon
           class="cls-3"
           points="275.5,87.1 250.5,43.8 225.5,87.1 250.5,130.4 "
           id="polygon14-8-5-2-52"
           style="fill:#6097f6;fill-opacity:1;stroke:#dce0df;stroke-linejoin:round"
           transform="matrix(0.36022366,0,0,0.36022366,-153.26891,325.95948)" /><polygon
           class="cls-8"
           points="350.5,217.01 375.5,260.31 425.5,260.31 400.5,217.01 "
           id="polygon32-8-3-24"
           transform="matrix(0.36022366,0,0,0.36022366,-171.28009,325.95588)"
           style="fill:#2956c7;fill-opacity:1;stroke:#dce0df;stroke-linejoin:round" /><polygon
           class="cls-8"
           points="350.5,217.01 375.5,260.31 425.5,260.31 400.5,217.01 "
           id="polygon32-8-3-8-9"
           transform="matrix(0.36022366,0,0,0.36022366,-180.28569,310.3582)"
           style="fill:#2956c7;fill-opacity:1;stroke:#dce0df;stroke-linejoin:round" /><polygon
           class="cls-8"
           points="425.5,260.31 400.5,217.01 350.5,217.01 375.5,260.31 "
           id="polygon32-8-3-8-0-3"
           transform="matrix(0.36022366,0,0,0.36022366,-99.235355,294.76051)"
           style="fill:#2956c7;fill-opacity:1;stroke:#dce0df;stroke-linejoin:round" /><polygon
           class="cls-8"
           points="400.5,217.01 350.5,217.01 375.5,260.31 425.5,260.31 "
           id="polygon32-8-3-9-77"
           transform="matrix(0.36022366,0,0,0.36022366,-189.29128,294.76051)"
           style="fill:#2956c7;fill-opacity:1;stroke:#dce0df;stroke-linejoin:round" /><polygon
           class="cls-8"
           points="375.5,173.71 350.5,217.01 400.5,217.01 "
           id="polygon33-1-0-6"
           transform="matrix(0.36022366,0,0,0.36022366,-63.212981,294.76051)"
           style="fill:#2956c7;fill-opacity:1;stroke:#dce0df;stroke-linejoin:round" /><polygon
           class="cls-8"
           points="375.5,260.31 425.5,260.31 400.5,217.01 350.5,217.01 "
           id="polygon32-8-3-24-9"
           transform="matrix(0.36022366,0,0,0.36022366,-45.201792,325.95588)"
           style="fill:#2956c7;fill-opacity:1;stroke:#dce0df;stroke-linejoin:round" /><polygon
           class="cls-8"
           points="375.5,260.31 425.5,260.31 400.5,217.01 350.5,217.01 "
           id="polygon32-8-3-8-9-3"
           transform="matrix(0.36022366,0,0,0.36022366,-54.207386,310.3582)"
           style="fill:#2956c7;fill-opacity:1;stroke:#dce0df;stroke-linejoin:round" /><polygon
           class="cls-8"
           points="350.5,217.01 375.5,260.31 425.5,260.31 400.5,217.01 "
           id="polygon32-8-3-9-77-3"
           transform="matrix(0.36022366,0,0,0.36022366,-63.212981,294.76051)"
           style="fill:#2956c7;fill-opacity:1;stroke:#dce0df;stroke-linejoin:round" /><polygon
           class="cls-8"
           points="350.5,217.01 375.5,260.31 425.5,260.31 400.5,217.01 "
           id="polygon32-8-3-9-9-5"
           transform="matrix(0.36022366,0,0,0.36022366,-225.31364,294.76052)"
           style="fill:#2956c7;fill-opacity:1;stroke:#dce0df;stroke-linejoin:round" /><polygon
           class="cls-1"
           points="200.5,43.8 250.5,43.8 275.5,0.5 225.5,0.5 "
           id="polygon8-88-4"
           transform="matrix(0.36022366,0,0,0.36022366,-153.26891,325.95948)"
           style="fill:#5e97f6;stroke:#dce0df;stroke-linejoin:round" /><polygon
           class="cls-9"
           points="375.5,87.1 350.5,43.8 400.5,43.8 "
           id="polygon38-0-0-6-4-1-3"
           transform="matrix(0.36022366,0,0,0.36022366,-81.22417,325.95948)"
           style="fill:#6097f6;fill-opacity:1;stroke:#dce0df;stroke-linejoin:round" /><polygon
           class="cls-1"
           points="200.5,43.8 250.5,43.8 275.5,0.5 225.5,0.5 "
           id="polygon8-88-4-0"
           transform="matrix(0.36022366,0,0,0.36022366,-27.19063,325.95948)"
           style="fill:#5e97f6;stroke:#dce0df;stroke-linejoin:round" /><g
           id="Layer_1-2-9-3"
           data-name="Layer 1"
           transform="matrix(0.47319913,0,0,0.47319913,-487.13624,251.75842)" /><polygon
           class="cls-8"
           points="350.5,217.01 375.5,260.31 425.5,260.31 400.5,217.01 "
           id="polygon32-85-0-4"
           transform="matrix(0.36022366,0,0,0.36022366,-153.26891,294.76051)"
           style="fill:#25a799;fill-opacity:1;stroke:#dce0df;stroke-linejoin:round" /><polygon
           class="cls-8"
           points="400.5,217.01 350.5,217.01 375.5,260.31 425.5,260.31 "
           id="polygon32-85-0-6-09"
           transform="matrix(0.36022366,0,0,0.36022366,-171.28009,263.56514)"
           style="fill:#25a799;fill-opacity:1;stroke:#dce0df;stroke-linejoin:round" /><polygon
           class="cls-8"
           points="425.5,260.31 400.5,217.01 350.5,217.01 375.5,260.31 "
           id="polygon32-85-0-6-9-55"
           transform="matrix(0.36022366,0,0,0.36022366,44.854101,263.56514)"
           style="fill:#25a799;fill-opacity:1;stroke:#dce0df;stroke-linejoin:round" /><polygon
           class="cls-1"
           points="275.5,0.5 225.5,0.5 200.5,43.8 250.5,43.8 "
           id="polygon8-05-7-5"
           transform="matrix(0.36022366,0,0,0.36022366,-99.235356,357.15486)"
           style="fill:#006b5e;fill-opacity:1;stroke:#dce0df;stroke-linejoin:round" /><polygon
           class="cls-3"
           points="225.5,87.1 250.5,130.4 275.5,87.1 250.5,43.8 "
           id="polygon14-8-5-6-5-1"
           style="fill:#6097f6;fill-opacity:1;stroke:#dce0df;stroke-linejoin:round"
           transform="matrix(0.36022366,0,0,0.36022366,-45.201802,325.95948)" /><polygon
           class="cls-3"
           points="225.5,87.1 250.5,130.4 275.5,87.1 250.5,43.8 "
           id="polygon14-8-5-6-0-3"
           style="fill:#6097f6;fill-opacity:1;stroke:#dce0df;stroke-linejoin:round"
           transform="matrix(0.36022366,0,0,0.36022366,-36.196211,341.55717)" /><polygon
           class="cls-8"
           points="425.5,260.31 400.5,217.01 350.5,217.01 375.5,260.31 "
           id="polygon32-4-7-9-8"
           transform="matrix(0.36022366,0,0,0.36022366,108.25345,279.52302)"
           style="fill:#6197f5;fill-opacity:1;stroke:#dce0df;stroke-linejoin:round" /><polygon
           class="cls-8"
           points="375.5,260.31 425.5,260.31 400.5,217.01 350.5,217.01 "
           id="polygon32-4-1-0-2-6-4"
           transform="matrix(0.36022366,0,0,0.36022366,135.27021,326.31607)"
           style="fill:#6197f5;fill-opacity:1;stroke:#dce0df;stroke-linejoin:round" /><polygon
           class="cls-3"
           points="225.5,87.1 250.5,130.4 275.5,87.1 250.5,43.8 "
           id="polygon14-8-5-6-4-8"
           style="fill:#6097f6;fill-opacity:1;stroke:#dce0df;stroke-linejoin:round"
           transform="matrix(0.36022366,0,0,0.36022366,-27.190617,325.95948)" /><polygon
           class="cls-8"
           points="350.5,217.01 375.5,260.31 425.5,260.31 400.5,217.01 "
           id="polygon32-4-9-5-6-45"
           transform="matrix(0.36022366,0,0,0.36022366,98.887651,263.56514)"
           style="fill:#6197f5;fill-opacity:1;stroke:#dce0df;stroke-linejoin:round" /><polygon
           class="cls-8"
           points="400.5,217.01 350.5,217.01 375.5,260.31 425.5,260.31 "
           id="polygon54"
           transform="matrix(0.36022366,0,0,0.36022366,89.882036,310.35818)"
           style="fill:#6197f5;fill-opacity:1;stroke:#dce0df;stroke-linejoin:round" /><polygon
           class="cls-1"
           points="175.5,87.1 225.5,87.1 250.5,43.8 200.5,43.8 "
           id="polygon7-75-0-0-2-6"
           transform="matrix(0.36022366,0,0,0.36022366,161.92678,310.3618)"
           style="fill:#2956c7;fill-opacity:1;stroke:#dce0df;stroke-linejoin:round" /><polygon
           class="cls-9"
           points="425.5,0.5 375.5,0.5 350.5,43.8 400.5,43.8 "
           id="polygon37-99-1-0-6-6-6"
           transform="matrix(0.36022366,0,0,0.36022366,135.27024,325.95947)"
           style="fill:#9b26b0;fill-opacity:1;stroke:#dce0df;stroke-linejoin:round" /><polygon
           class="cls-9"
           points="350.5,43.8 400.5,43.8 425.5,0.5 375.5,0.5 "
           id="polygon37-99-1-0-6-6-7-0"
           transform="matrix(0.36022366,0,0,0.36022366,98.887641,388.35022)"
           style="fill:#9b26b0;fill-opacity:1;stroke:#dce0df;stroke-linejoin:round" /><polygon
           class="cls-6"
           points="400.5,217.01 425.5,260.31 450.5,217.01 425.5,173.71 "
           id="polygon22-4-6-3-5-3"
           transform="matrix(0.36022366,0,0,0.36022366,98.887651,263.56514)"
           style="fill:#e983fc;fill-opacity:1;stroke:#dce0df;stroke-linejoin:round" /><polygon
           class="cls-6"
           points="425.5,173.71 400.5,217.01 425.5,260.31 450.5,217.01 "
           id="polygon22-4-6-3-6-8"
           transform="matrix(0.36022366,0,0,0.36022366,108.25346,279.16281)"
           style="fill:#e983fc;fill-opacity:1;stroke:#dce0df;stroke-linejoin:round" /><polygon
           class="cls-6"
           points="425.5,173.71 400.5,217.01 425.5,260.31 450.5,217.01 "
           id="polygon22-4-6-3-2-0"
           transform="matrix(0.36022366,0,0,0.36022366,126.26462,310.71838)"
           style="fill:#e983fc;fill-opacity:1;stroke:#dce0df;stroke-linejoin:round" /><polygon
           class="cls-6"
           points="425.5,173.71 400.5,217.01 425.5,260.31 450.5,217.01 "
           id="polygon22-4-6-3-53-90"
           transform="matrix(0.36022366,0,0,0.36022366,135.27021,326.31607)"
           style="fill:#e983fc;fill-opacity:1;stroke:#dce0df;stroke-linejoin:round" /><use
           x="0"
           y="0"
           xlink:href="#polygon8-05-7-5"
           id="use1"
           transform="translate(18.011181)" /><use
           x="0"
           y="0"
           xlink:href="#polygon32-85-0-4"
           id="use2"
           transform="translate(18.011181)" /><use
           x="0"
           y="0"
           xlink:href="#polygon32-85-0-6-09"
           id="use3"
           transform="translate(18.011181)" /><use
           x="0"
           y="0"
           xlink:href="#polygon32-85-92-1-1"
           id="use4"
           transform="translate(18.011181)" /><use
           x="0"
           y="0"
           xlink:href="#polygon8-05-6-0-2"
           id="use5"
           transform="translate(18.011181)" /><use
           x="0"
           y="0"
           xlink:href="#polygon8-05-8-2"
           id="use6"
           transform="translate(18.011181)" /><use
           x="0"
           y="0"
           xlink:href="#polygon14-6-7-8"
           id="use8"
           transform="translate(-18.011182,-31.195365)" /><polygon
           class="cls-3"
           points="275.5,87.1 250.5,43.8 225.5,87.1 250.5,130.4 "
           id="use42"
           transform="matrix(0.36022366,0,0,0.36022366,107.89321,310.3618)"
           style="fill:#00796b;stroke:#dce0df;stroke-linejoin:round" /><polygon
           class="cls-3"
           points="250.5,130.4 275.5,87.1 250.5,43.8 225.5,87.1 "
           id="use42-4"
           transform="matrix(0.36022366,0,0,0.36022366,62.865289,325.95948)"
           style="fill:#00796b;stroke:#dce0df;stroke-linejoin:round" /><polygon
           class="cls-3"
           points="225.5,87.1 250.5,130.4 275.5,87.1 250.5,43.8 "
           id="polygon52"
           style="fill:#6097f6;fill-opacity:1;stroke:#dce0df;stroke-linejoin:round"
           transform="matrix(0.36022366,0,0,0.36022366,125.9044,341.55717)" /><use
           x="0"
           y="0"
           xlink:href="#polygon8-05-8-3-7-0"
           id="use17"
           transform="translate(-18.011181)" /><use
           x="0"
           y="0"
           xlink:href="#polygon8-05-8-3-7-0"
           id="use17-1"
           transform="translate(-72.044707,62.390737)" /><use
           x="0"
           y="0"
           xlink:href="#polygon32-85-0-6-9-55"
           id="use20"
           transform="translate(-18.011186)" /><use
           x="0"
           y="0"
           xlink:href="#polygon32-85-0-6-9-55"
           id="use20-1"
           transform="translate(-36.022358,31.19537)" /><polygon
           class="cls-1"
           points="250.5,43.8 275.5,0.5 225.5,0.5 200.5,43.8 "
           id="use21"
           transform="matrix(0.36022366,0,0,0.36022366,98.887641,357.15486)"
           style="fill:#006b5e;fill-opacity:1;stroke:#dce0df;stroke-linejoin:round" /><use
           x="0"
           y="0"
           xlink:href="#use21"
           id="use22"
           transform="translate(-9.0056041,15.597685)" /><polygon
           class="cls-8"
           points="350.5,217.01 375.5,260.31 425.5,260.31 400.5,217.01 "
           id="use24"
           transform="matrix(0.36022366,0,0,0.36022366,26.842912,325.95588)"
           style="fill:#25a799;fill-opacity:1;stroke:#dce0df;stroke-linejoin:round" /><polygon
           class="cls-8"
           points="400.5,217.01 350.5,217.01 375.5,260.31 425.5,260.31 "
           id="use24-1"
           transform="matrix(0.36022366,0,0,0.36022366,-27.190611,325.95588)"
           style="fill:#25a799;fill-opacity:1;stroke:#dce0df;stroke-linejoin:round" /><polygon
           class="cls-3"
           points="275.5,87.1 250.5,43.8 225.5,87.1 250.5,130.4 "
           id="use26"
           transform="matrix(0.36022366,0,0,0.36022366,98.887622,357.15484)"
           style="fill:#00796b;stroke:#dce0df;stroke-linejoin:round" /><use
           x="0"
           y="0"
           xlink:href="#use21"
           id="use22-8"
           transform="translate(-18.011184,31.195385)" /><polygon
           class="cls-3"
           points="250.5,43.8 225.5,87.1 250.5,130.4 275.5,87.1 "
           id="use26-2"
           transform="matrix(0.36022366,0,0,0.36022366,90.242233,373.11273)"
           style="fill:#00796b;stroke:#dce0df;stroke-linejoin:round" /><polygon
           class="cls-1"
           points="250.5,43.8 275.5,0.5 225.5,0.5 200.5,43.8 "
           id="use28"
           transform="matrix(0.36022366,0,0,0.36022366,80.876476,357.15486)"
           style="fill:#006b5e;fill-opacity:1;stroke:#dce0df;stroke-linejoin:round" /><polygon
           class="cls-1"
           points="200.5,43.8 250.5,43.8 275.5,0.5 225.5,0.5 "
           id="use28-9"
           transform="matrix(0.36022366,0,0,0.36022366,62.865269,357.15486)"
           style="fill:#006b5e;fill-opacity:1;stroke:#dce0df;stroke-linejoin:round" /><polygon
           class="cls-1"
           points="250.5,43.8 275.5,0.5 225.5,0.5 200.5,43.8 "
           id="use30"
           transform="matrix(0.36022366,0,0,0.36022366,107.89322,341.55717)"
           style="fill:#006b5e;fill-opacity:1;stroke:#dce0df;stroke-linejoin:round" /><polygon
           class="cls-9"
           points="400.5,43.8 375.5,87.1 350.5,43.8 "
           id="polygon31"
           transform="matrix(0.36022366,0,0,0.36022366,26.842901,357.15486)"
           style="fill:#24a89a;fill-opacity:1;stroke:#dce0df;stroke-linejoin:round" /><polygon
           class="cls-1"
           points="225.5,87.1 250.5,43.8 200.5,43.8 175.5,87.1 "
           id="polygon39"
           transform="matrix(0.36022366,0,0,0.36022366,143.9156,310.3618)"
           style="fill:#2956c7;fill-opacity:1;stroke:#dce0df;stroke-linejoin:round" /><polygon
           class="cls-1"
           points="250.5,43.8 200.5,43.8 175.5,87.1 225.5,87.1 "
           id="polygon40"
           transform="matrix(0.36022366,0,0,0.36022366,134.91001,325.95948)"
           style="fill:#2956c7;fill-opacity:1;stroke:#dce0df;stroke-linejoin:round" /><polygon
           class="cls-1"
           points="200.5,43.8 175.5,87.1 225.5,87.1 250.5,43.8 "
           id="polygon41"
           transform="matrix(0.36022366,0,0,0.36022366,125.90441,341.55717)"
           style="fill:#2956c7;fill-opacity:1;stroke:#dce0df;stroke-linejoin:round" /><polygon
           class="cls-1"
           points="175.5,87.1 225.5,87.1 250.5,43.8 200.5,43.8 "
           id="polygon42"
           transform="matrix(0.36022366,0,0,0.36022366,116.89881,357.15486)"
           style="fill:#2956c7;fill-opacity:1;stroke:#dce0df;stroke-linejoin:round" /><polygon
           class="cls-1"
           points="250.5,43.8 200.5,43.8 175.5,87.1 225.5,87.1 "
           id="polygon44"
           transform="matrix(0.36022366,0,0,0.36022366,107.89322,372.75253)"
           style="fill:#2956c7;fill-opacity:1;stroke:#dce0df;stroke-linejoin:round" /><polygon
           class="cls-8"
           points="425.5,260.31 400.5,217.01 350.5,217.01 375.5,260.31 "
           id="polygon45"
           transform="matrix(0.36022366,0,0,0.36022366,44.854101,325.95588)"
           style="fill:#6197f5;fill-opacity:1;stroke:#dce0df;stroke-linejoin:round" /><polygon
           class="cls-1"
           points="250.5,43.8 200.5,43.8 175.5,87.1 225.5,87.1 "
           id="polygon46"
           transform="matrix(0.36022366,0,0,0.36022366,134.90999,357.15486)"
           style="fill:#2956c7;fill-opacity:1;stroke:#dce0df;stroke-linejoin:round" /><polygon
           class="cls-1"
           points="200.5,43.8 175.5,87.1 225.5,87.1 250.5,43.8 "
           id="polygon47"
           transform="matrix(0.36022366,0,0,0.36022366,152.92118,357.15486)"
           style="fill:#2956c7;fill-opacity:1;stroke:#dce0df;stroke-linejoin:round" /><polygon
           class="cls-9"
           points="400.5,43.8 425.5,0.5 375.5,0.5 350.5,43.8 "
           id="polygon48"
           transform="matrix(0.36022366,0,0,0.36022366,107.89322,372.75253)"
           style="fill:#9b26b0;fill-opacity:1;stroke:#dce0df;stroke-linejoin:round" /><polygon
           class="cls-8"
           points="425.5,260.31 400.5,217.01 350.5,217.01 375.5,260.31 "
           id="polygon49"
           transform="matrix(0.36022366,0,0,0.36022366,71.870858,310.3582)"
           style="fill:#6197f5;fill-opacity:1;stroke:#dce0df;stroke-linejoin:round" /><polygon
           class="cls-3"
           points="275.5,87.1 250.5,43.8 225.5,87.1 250.5,130.4 "
           id="polygon50"
           style="fill:#6097f6;fill-opacity:1;stroke:#dce0df;stroke-linejoin:round"
           transform="matrix(0.36022366,0,0,0.36022366,107.89322,372.75253)" /><polygon
           class="cls-3"
           points="250.5,43.8 225.5,87.1 250.5,130.4 275.5,87.1 "
           id="polygon51"
           style="fill:#6097f6;fill-opacity:1;stroke:#dce0df;stroke-linejoin:round"
           transform="matrix(0.36022366,0,0,0.36022366,134.91001,325.95948)" /><polygon
           class="cls-3"
           points="225.5,87.1 250.5,130.4 275.5,87.1 250.5,43.8 "
           id="polygon14-6-7-8-09-3"
           transform="matrix(0.36022366,0,0,0.36022366,35.84852,372.75253)"
           style="fill:#00796b;stroke:#dce0df;stroke-linejoin:round" /></g></g></g></svg>
